<svg height='100px' width='100px' fill="#657786" xmlns:dc="http://purl.org/dc/elements/1.1/" xmlns:cc="http://creativecommons.org/ns#" xmlns:rdf="http://www.w3.org/1999/02/22-rdf-syntax-ns#" xmlns:svg="http://www.w3.org/2000/svg" xmlns="http://www.w3.org/2000/svg" xmlns:sodipodi="http://sodipodi.sourceforge.net/DTD/sodipodi-0.dtd" xmlns:inkscape="http://www.inkscape.org/namespaces/inkscape" version="1.1" x="0px" y="0px" viewBox="0 0 100 100"><g transform="translate(0,-952.36218)"><path d="m 40.742068,965.36221 c 0.95105,0.1351 1.72971,1.0411 1.72023,2.0015 l 0,12.259 c 20.07587,0.5231 34.62023,8.673 41.37953,20.07737 6.9874,11.78912 5.34905,26.89482 -6.28668,39.09142 -0.66912,0.6733 -1.84115,0.764 -2.60596,0.2017 -0.7648,-0.5623 -1.02759,-1.7079 -0.5843,-2.5473 5.17925,-9.4414 3.11161,-19.0124 -3.28409,-25.425 -6.16618,-6.1823 -16.45851,-9.3158 -28.6185,-5.6291 l 0,13.0096 c -0.006,0.7814 -0.51553,1.5357 -1.23791,1.834 -0.72238,0.2981 -1.6155,0.1226 -2.17128,-0.4268 L 12.561447,993.78941 c -0.76116,-0.7524 -0.74609,-2.1415 0.0312,-2.8771 l 26.491661,-25.0185 c 0.54009,-0.4554 1.13726,-0.4611 1.65774,-0.5316 z m -2.28323,6.6299 -21.612441,20.3901 21.612441,21.23449 0,-9.726 c -0.007,-0.8305 0.56023,-1.6351 1.34491,-1.9076 13.98915,-4.78162 26.58996,-1.3611 34.12326,6.1919 4.89551,4.9085 7.5547,11.6083 7.225,18.6701 4.23604,-8.6286 3.73292,-17.5475 -0.75065,-25.1122 -6.10588,-10.30189 -19.85191,-18.20109 -39.94079,-18.20109 -1.04808,-10e-5 -2.00165,-0.9535 -2.00173,-2.0015 z" style="text-indent:0;text-transform:none;direction:ltr;block-progression:tb;baseline-shift:baseline;color:#657786;enable-background:accumulate;" fill="#657786" fill-opacity="1" stroke="#657786" stroke-width="2px" marker="none" visibility="visible" display="inline" overflow="visible"></path></g></svg>